<svg xmlns="http://www.w3.org/2000/svg" xmlns:xlink="http://www.w3.org/1999/xlink" viewBox="0 0 480.72 480.72"><defs><style>.cls-1{fill:#ff2291;}.cls-2{opacity:0.5;fill:url(#radial-gradient);}.cls-3{fill:#1a1a1a;}.cls-4{fill:#39b54a;}.cls-5{fill:none;stroke:#39b54a;stroke-linecap:round;stroke-miterlimit:10;stroke-width:8px;}.cls-6{fill:#a67c52;}.cls-7{fill:#fff;opacity:0.3;}.cls-8{fill:#fcee21;}</style><radialGradient id="radial-gradient" cx="240.36" cy="240.36" r="240.36" gradientUnits="userSpaceOnUse"><stop offset="0" stop-color="#fff"/><stop offset="0.36" stop-color="#fdfdfd"/><stop offset="0.49" stop-color="#f6f6f6"/><stop offset="0.58" stop-color="#ebebeb"/><stop offset="0.66" stop-color="#dadada"/><stop offset="0.72" stop-color="#c5c4c4"/><stop offset="0.73" stop-color="#c3c2c2"/><stop offset="0.75" stop-color="#bcbbbb"/><stop offset="0.77" stop-color="#a8a7a7"/><stop offset="0.78" stop-color="#a3a2a2"/><stop offset="0.8" stop-color="#999797"/><stop offset="0.84" stop-color="#7d7b7b"/><stop offset="0.85" stop-color="#737171"/><stop offset="0.89" stop-color="#5e5d5d"/><stop offset="0.95" stop-color="#2a2929"/><stop offset="1"/></radialGradient></defs><title>i_ecoBulb</title><g id="Layer_2" data-name="Layer 2"><g id="L3_-_LIGHTBULB" data-name="L3 - LIGHTBULB"><circle id="Background" class="cls-1" cx="240.36" cy="240.36" r="240.36"/><circle id="BG_Gradient" data-name="BG Gradient" class="cls-2" cx="240.36" cy="240.36" r="240.36"/><g id="eBulb"><g id="bulbBottom"><ellipse class="cls-3" cx="240.36" cy="389.15" rx="52.87" ry="20.11"/><ellipse class="cls-3" cx="240.36" cy="404.16" rx="52.87" ry="20.11"/><ellipse class="cls-3" cx="240.36" cy="419.27" rx="52.87" ry="20.11"/><ellipse class="cls-3" cx="240.36" cy="435" rx="52.87" ry="20.11"/><path d="M289.41,412.09a105.6,105.6,0,0,1-23.87,8.07c-2.05.49-4.14.81-6.21,1.19s-4.16.64-6.27.81a108.55,108.55,0,0,1-12.62.55,139.76,139.76,0,0,1-25.05-3.13,130.71,130.71,0,0,1-24.08-7.49,117.16,117.16,0,0,0,11.92,4.09c4,1.2,8.11,2.24,12.23,3.08a140.1,140.1,0,0,0,25,2.95,105.49,105.49,0,0,0,12.57-.47c2.1-.15,4.17-.49,6.25-.76s4.15-.67,6.2-1.15a111.26,111.26,0,0,0,12.17-3.23A95.16,95.16,0,0,0,289.41,412.09Z"/><path d="M289.41,427a105.6,105.6,0,0,1-23.87,8.07c-2.05.49-4.14.81-6.21,1.19s-4.16.64-6.27.81a108.55,108.55,0,0,1-12.62.55,139.76,139.76,0,0,1-25.05-3.13A130.71,130.71,0,0,1,191.31,427a117.16,117.16,0,0,0,11.92,4.09c4,1.2,8.11,2.24,12.23,3.08a140.1,140.1,0,0,0,25,2.95,105.49,105.49,0,0,0,12.57-.47c2.1-.15,4.17-.49,6.25-.76s4.15-.67,6.2-1.14a113.61,113.61,0,0,0,12.17-3.24A95.16,95.16,0,0,0,289.41,427Z"/><path d="M289.41,396.25a106.1,106.1,0,0,1-23.87,8.07c-2.05.48-4.14.8-6.21,1.19s-4.16.64-6.27.8a104.31,104.31,0,0,1-12.62.55,139.74,139.74,0,0,1-25.05-3.12,131.48,131.48,0,0,1-24.08-7.49,117.16,117.16,0,0,0,11.92,4.09c4,1.19,8.11,2.23,12.23,3.07a139.19,139.19,0,0,0,25,2.95A103.43,103.43,0,0,0,253,405.9c2.1-.15,4.17-.5,6.25-.76s4.15-.68,6.2-1.15a113.56,113.56,0,0,0,12.17-3.23A96.78,96.78,0,0,0,289.41,396.25Z"/></g><g id="Plant"><path class="cls-4" d="M235.11,380.84c-.75-18-1-36.11-1.14-54.17s0-36.11.2-54.17l.09-6.77.07-3.38-.09-3a37.81,37.81,0,0,0-42-35.33c-8.56.73-17.23,3.31-23.75,9.21l-.07.06a.94.94,0,0,1-1.35-.07,1,1,0,0,1,0-1.29c.78-.86,1.52-1.79,2.37-2.61a32.48,32.48,0,0,1,2.66-2.32l1.42-1.07c.49-.34,1-.64,1.49-1,1-.66,2-1.19,3.09-1.75s2.14-1,3.22-1.47,2.21-.87,3.34-1.2a51.85,51.85,0,0,1,6.86-1.75,44.85,44.85,0,0,1,7.11-.81h3.65c1.21.06,2.42.22,3.64.34a44.32,44.32,0,0,1,14,4.44,43.33,43.33,0,0,1,11.77,9A45.43,45.43,0,0,1,240,244.08a48.07,48.07,0,0,1,3.84,14.5l.25,3.77.06,3.38.09,6.77c.21,18.06.34,36.12.2,54.17s-.39,36.12-1.13,54.17a4.12,4.12,0,0,1-8.23,0Z"/><path class="cls-4" d="M325.86,225.82a59.7,59.7,0,0,0-9.95-13,30.71,30.71,0,0,0-13.61-7.64A53.12,53.12,0,0,0,286.42,204a44.91,44.91,0,0,0-15.19,3.34,35.69,35.69,0,0,0-12.31,8.73,45.9,45.9,0,0,0-8.2,12.9c-1.05,2.37-1.9,4.84-2.75,7.31s-1.61,5-2.24,7.59a57.75,57.75,0,0,0-1.41,7.84c-.14,1.32-.24,2.65-.26,4,0,.66,0,1.32,0,2s.06,1.35.15,1.85a5.07,5.07,0,0,1-10,1.8,4.92,4.92,0,0,1-.06-1.43l0-.35c.1-.91.18-1.58.28-2.35l.29-2.21.6-4.38c.4-2.9.9-5.79,1.46-8.68a76.58,76.58,0,0,1,2.2-8.58,56.14,56.14,0,0,1,3.48-8.25,54.52,54.52,0,0,1,10.68-14.64,43.34,43.34,0,0,1,15.48-9.61,49.21,49.21,0,0,1,17.64-2.69,58.05,58.05,0,0,1,17.32,2.62,34.09,34.09,0,0,1,8,3.94,36.59,36.59,0,0,1,6.62,5.83A60,60,0,0,1,327.49,225a.92.92,0,0,1-.44,1.23A.94.94,0,0,1,325.86,225.82Z"/><path id="Leaf_Left" data-name="Leaf Left" class="cls-5" d="M179.42,248.67c6.29-.16,13.69-3.44,16.36-8.34,3.69-6.76,3.91-10.81,2.32-19.41h0c-8.23-7.93-25.53-10.37-35-3.71-10.53,7.4-16.06,34.6-16.06,34.6Z"/><path id="Leaf_Right" data-name="Leaf Right" class="cls-5" d="M299.42,242.91c-8.82.83-19.7-2.52-24.25-8.92-6.27-8.83-7.6-15.67-6.82-28h0c10.18-12.44,34.29-17.54,48.68-9.81,16,8.57,28.21,45.66,28.21,45.66Z"/><path id="Dirt" class="cls-6" d="M200.84,382s15.42,5.05,38.12,5.05a152.67,152.67,0,0,0,42-6.24s-15.1-37.38-41.74-37.38S200.84,382,200.84,382Z"/></g><path id="Bulb" class="cls-7" d="M387.59,249.5c0,57.48-53.72,102.23-101,130.14-19.2,11.32-23.71,13.74-46.2,13.74-21.44,0-29.88-1.94-47.64-12.53C144.61,352.15,93.13,308,93.13,249.5c0-79.46,65.92-143.87,147.23-143.87S387.59,170,387.59,249.5Z"/><g id="Light_Rays" data-name="Light Rays"><path class="cls-8" d="M242.49,41.19l-5,57.6-5-57.6a5,5,0,1,1,10,0Z"/><path class="cls-8" d="M131.3,74.23l24.47,52.38L122.64,79.23a5,5,0,1,1,8.23-5.75A5.59,5.59,0,0,1,131.3,74.23Z"/><path class="cls-8" d="M358.08,79.23,325,126.61l24.47-52.38a5,5,0,0,1,9.09,4.25A6.09,6.09,0,0,1,358.08,79.23Z"/></g></g></g></g></svg>
