<svg xmlns="http://www.w3.org/2000/svg" xmlns:xlink="http://www.w3.org/1999/xlink" viewBox="0 0 480.72 480.72"><defs><style>.cls-1{fill:#ff2291;}.cls-2{opacity:0.5;fill:url(#radial-gradient);}.cls-3{fill:#006837;}.cls-4{fill:#333;}.cls-5{fill:#39b54a;}.cls-6{fill:#8cc63f;}</style><radialGradient id="radial-gradient" cx="240.36" cy="240.36" r="240.36" gradientUnits="userSpaceOnUse"><stop offset="0" stop-color="#fff"/><stop offset="0.36" stop-color="#fdfdfd"/><stop offset="0.49" stop-color="#f6f6f6"/><stop offset="0.58" stop-color="#ebebeb"/><stop offset="0.66" stop-color="#dadada"/><stop offset="0.72" stop-color="#c5c4c4"/><stop offset="0.73" stop-color="#c3c2c2"/><stop offset="0.75" stop-color="#bcbbbb"/><stop offset="0.77" stop-color="#a8a7a7"/><stop offset="0.78" stop-color="#a3a2a2"/><stop offset="0.8" stop-color="#999797"/><stop offset="0.84" stop-color="#7d7b7b"/><stop offset="0.85" stop-color="#737171"/><stop offset="0.89" stop-color="#5e5d5d"/><stop offset="0.95" stop-color="#2a2929"/><stop offset="1"/></radialGradient></defs><title>i_ecoCar</title><g id="Layer_2" data-name="Layer 2"><g id="L4_-_ECO_CAR" data-name="L4 - ECO CAR"><circle id="Background" class="cls-1" cx="240.36" cy="240.36" r="240.36"/><circle id="BG_Gradient" data-name="BG Gradient" class="cls-2" cx="240.36" cy="240.36" r="240.36"/><g id="ecoCar"><path class="cls-3" d="M138.32,215.76S79.94,233,71.69,235.92,62,278.16,66.8,286.32s8.64,13.92,27.36,14.4,202.56,0,202.56,0h2.53l63.39.15,21,.05s19.68-7.25,20.16-28.45,3.36-35.07-13.44-41.81a292.77,292.77,0,0,1-31.2-14.91L331,174s-8.89-13.44-25.64-13.92-103.15,0-103.15,0-22.08,1-30.24,13S138.32,215.76,138.32,215.76Z"/><path class="cls-4" d="M163.2,297.39a31.36,31.36,0,0,1-.17,3.24,31.65,31.65,0,1,1,.17-3.24Z"/><path class="cls-4" d="M299.32,299.5c0-.69-.07-1.4-.07-2.11a31.7,31.7,0,0,1,63.39,0c0,1.1-.06,2.18-.16,3.24a31.7,31.7,0,0,1-63.06.08c0-.4-.07-.8-.1-1.21"/><path id="Leaf_Right" data-name="Leaf Right" class="cls-5" d="M279.41,251.8c-2.19,10.3-9.86,21.46-18.73,24.34-12.26,4-20.48,3.06-34.14-2.19h0c-10.51-16-7.72-45.13,6.16-58.71,15.4-15.06,61.83-15.79,61.83-15.79Z"/><path class="cls-3" d="M284.23,205.33c-3.31,1.81-6.52,3.78-9.65,5.87s-6.21,4.23-9.19,6.54a123,123,0,0,0-16.59,15.17,88.5,88.5,0,0,0-7,8.77,78.72,78.72,0,0,0-5.7,9.66,61.59,61.59,0,0,0-3.92,10.52A57.77,57.77,0,0,0,230.47,273a53.36,53.36,0,0,1,1.2-11.25,62.71,62.71,0,0,1,3.7-10.73,77.29,77.29,0,0,1,12.69-18.76,103.11,103.11,0,0,1,8.08-8c2.82-2.51,5.74-4.92,8.79-7.15A124.54,124.54,0,0,1,284.23,205.33Z"/><path id="Leaf_Right-2" data-name="Leaf Right" class="cls-6" d="M255.56,241.5c2.94,8.26,2.38,19.52-2.66,25.45-7,8.17-13.19,11.11-25.17,13.35h0c-14.42-6.74-25.18-28.65-21.27-44.35,4.35-17.4,37-38.19,37-38.19Z"/><path class="cls-3" d="M239.51,204.67q-2.61,4.28-4.84,8.75c-1.51,3-2.92,6-4.2,9.06a109.31,109.31,0,0,0-6.11,19,79.54,79.54,0,0,0-1.59,9.81,70,70,0,0,0-.16,9.93,53.34,53.34,0,0,0,1.57,9.81,50.53,50.53,0,0,0,3.55,9.32,47.55,47.55,0,0,1-4-9.18,55.29,55.29,0,0,1-1.86-9.89,68.08,68.08,0,0,1,1.54-20,92.57,92.57,0,0,1,2.74-9.67c1.08-3.17,2.27-6.31,3.65-9.36A109.66,109.66,0,0,1,239.51,204.67Z"/></g></g></g></svg>