<svg xmlns="http://www.w3.org/2000/svg" xmlns:xlink="http://www.w3.org/1999/xlink" viewBox="0 0 484.96 484.96"><defs><style>.cls-1{fill:#ff2291;}.cls-2{opacity:0.5;fill:url(#radial-gradient);}.cls-3{fill:#666;}.cls-4{fill:#333;}.cls-5{fill:url(#linear-gradient);}.cls-6{fill:none;stroke:#ed1c24;stroke-miterlimit:10;stroke-width:20px;}</style><radialGradient id="radial-gradient" cx="242.48" cy="242.48" r="240.36" gradientUnits="userSpaceOnUse"><stop offset="0" stop-color="#fff"/><stop offset="0.36" stop-color="#fdfdfd"/><stop offset="0.49" stop-color="#f6f6f6"/><stop offset="0.58" stop-color="#ebebeb"/><stop offset="0.66" stop-color="#dadada"/><stop offset="0.72" stop-color="#c5c4c4"/><stop offset="0.73" stop-color="#c3c2c2"/><stop offset="0.75" stop-color="#bcbbbb"/><stop offset="0.77" stop-color="#a8a7a7"/><stop offset="0.78" stop-color="#a3a2a2"/><stop offset="0.8" stop-color="#999797"/><stop offset="0.84" stop-color="#7d7b7b"/><stop offset="0.85" stop-color="#737171"/><stop offset="0.89" stop-color="#5e5d5d"/><stop offset="0.95" stop-color="#2a2929"/><stop offset="1"/></radialGradient><linearGradient id="linear-gradient" x1="243.5" y1="107.44" x2="243.5" y2="249.44" gradientUnits="userSpaceOnUse"><stop offset="0" stop-color="gray" stop-opacity="0.5"/><stop offset="0.17" stop-color="#666" stop-opacity="0.8"/><stop offset="0.38" stop-color="#4d4d4d"/><stop offset="0.57" stop-color="#333"/><stop offset="0.67" stop-color="#272727"/><stop offset="0.82" stop-color="#1d1d1d"/><stop offset="1" stop-color="#1a1a1a"/></linearGradient></defs><title>i_pollution</title><g id="Layer_2" data-name="Layer 2"><g id="L8_-_POLLUTION" data-name="L8 - POLLUTION"><circle id="Background" class="cls-1" cx="242.48" cy="242.48" r="240.36"/><circle id="BG_Gradient" data-name="BG Gradient" class="cls-2" cx="242.48" cy="242.48" r="240.36"/><path class="cls-3" d="M24.12,343.07S155.53,347,154.7,242.48H330.15S324,342.36,460.83,343.09L366.22,448.58,275.8,477.64c-15.93,4.59-42.29,4.22-58.32,0l-86.21-22Z"/><path class="cls-4" d="M263.15,343.72a20.68,20.68,0,1,1-20.67-20.67A20.67,20.67,0,0,1,263.15,343.72Z"/><polygon class="cls-4" points="215.48 285.4 269.48 285.4 242.48 343.58 215.48 285.4"/><polygon class="cls-4" points="178.68 350.12 206.27 396.52 242.48 343.58 178.68 350.12"/><polygon class="cls-4" points="306.28 350.12 278.69 396.52 242.48 343.58 306.28 350.12"/><ellipse class="cls-4" cx="242.48" cy="242.48" rx="87.78" ry="6.51"/><path class="cls-5" d="M229.72,248.92s10.8-8.88,0-31.92-47.52-22.32-47.52-13-43.92,25.93-55.44-6.12c0,0-24.48,19.81-47.52,0,0,0-34.77,29.06-57.6,0-19.52-24.84,15.84-73.08,15.84-73.08s47.52-21.61,100.8-3.25c0,0,46.08-14,90.72-.35,0,0,58.32-18,113,0,0,0,47.89-27.93,90-4.32,22.73,12.74,39.2,83.91,39.2,83.91s-20.48,24.09-59.36-.39c0,0-23,23.76-81.36-4.32,0,0-15.12,15.84-49.68,6.48,0,0-40.26,7.29-13.65,46.13l-13.71.68-10.2,0Z"/><circle id="Background-2" data-name="Background" class="cls-6" cx="242.48" cy="242.48" r="232.48"/><line class="cls-6" x1="98.73" y1="49.82" x2="366.22" y2="448.58"/></g></g></svg>