<svg xmlns="http://www.w3.org/2000/svg" xmlns:xlink="http://www.w3.org/1999/xlink" viewBox="0 0 480.72 480.72"><defs><style>.cls-1{fill:#ff2291;}.cls-2{opacity:0.5;fill:url(#radial-gradient);}.cls-3,.cls-5{fill:none;stroke-linecap:square;stroke-linejoin:round;}.cls-3{stroke:#006837;stroke-width:27px;}.cls-4{fill:#006837;}.cls-5{stroke:#009245;stroke-width:25px;}.cls-6{fill:#009245;}</style><radialGradient id="radial-gradient" cx="240.36" cy="240.36" r="240.36" gradientUnits="userSpaceOnUse"><stop offset="0" stop-color="#fff"/><stop offset="0.36" stop-color="#fdfdfd"/><stop offset="0.49" stop-color="#f6f6f6"/><stop offset="0.58" stop-color="#ebebeb"/><stop offset="0.66" stop-color="#dadada"/><stop offset="0.72" stop-color="#c5c4c4"/><stop offset="0.73" stop-color="#c3c2c2"/><stop offset="0.75" stop-color="#bcbbbb"/><stop offset="0.77" stop-color="#a8a7a7"/><stop offset="0.78" stop-color="#a3a2a2"/><stop offset="0.8" stop-color="#999797"/><stop offset="0.84" stop-color="#7d7b7b"/><stop offset="0.85" stop-color="#737171"/><stop offset="0.89" stop-color="#5e5d5d"/><stop offset="0.95" stop-color="#2a2929"/><stop offset="1"/></radialGradient></defs><title>i_recycle</title><g id="Layer_2" data-name="Layer 2"><g id="L10_-_RECYCLE" data-name="L10 - RECYCLE"><circle id="Background" class="cls-1" cx="240.36" cy="240.36" r="240.36"/><circle id="BG_Gradient" data-name="BG Gradient" class="cls-2" cx="240.36" cy="240.36" r="240.36"/><g id="recycleTri"><g id="darkGreenShadow"><path class="cls-3" d="M378.32,327.28s14.4,22.08-1.44,22.56c-12.16.37-136.55.17-193.67.06"/><polygon class="cls-4" points="187.56 382.7 187.67 317.1 154.82 349.84 187.56 382.7"/><path class="cls-3" d="M128.72,350.05H104.24s-6.24.48,0-11.38c4.81-9.15,69-119.66,98.21-169.87"/><polygon class="cls-4" points="171.88 156.13 228.6 189.09 216.72 144.25 171.88 156.13"/><path class="cls-3" d="M229,120.88l7.2-11.52s7.18-6.88,11.07,0,6.75,11.52,6.75,11.52l96.55,160.44"/><polygon class="cls-4" points="376.44 260.64 320.23 294.47 365.25 305.65 376.44 260.64"/></g><g id="lightGreen"><path class="cls-5" d="M369.2,327.28s14.4,22.08-1.44,22.56c-12.31.37-139.67.17-195.77.06"/><polygon class="cls-6" points="176.01 380.26 176.12 319.52 145.7 349.84 176.01 380.26"/><path class="cls-5" d="M119.6,350.05H95.12s-6.24.48,0-11.38C100,329.41,165.71,216.28,194.38,167"/><polygon class="cls-6" points="166.09 155.25 218.6 185.77 207.6 144.25 166.09 155.25"/><path class="cls-5" d="M219.92,120.88l7.2-11.52s7.18-6.88,11.07,0,6.75,11.52,6.75,11.52l97.63,162.25"/><polygon class="cls-6" points="366.49 263.98 314.45 295.3 356.13 305.65 366.49 263.98"/></g></g></g></g></svg>