<svg xmlns="http://www.w3.org/2000/svg" xmlns:xlink="http://www.w3.org/1999/xlink" viewBox="0 0 480.72 480.72"><defs><style>.cls-1{fill:#ff2291;}.cls-2{opacity:0.5;fill:url(#radial-gradient);}.cls-3,.cls-4,.cls-6{fill:none;stroke-linejoin:round;}.cls-3,.cls-4{stroke:#006837;}.cls-3{stroke-linecap:round;stroke-width:20px;}.cls-4,.cls-6{stroke-linecap:square;}.cls-4{stroke-width:17px;}.cls-5{fill:#006837;}.cls-6{stroke:#009245;stroke-width:15px;}.cls-7{fill:#009245;}</style><radialGradient id="radial-gradient" cx="240.36" cy="240.36" r="240.36" gradientUnits="userSpaceOnUse"><stop offset="0" stop-color="#fff"/><stop offset="0.36" stop-color="#fdfdfd"/><stop offset="0.49" stop-color="#f6f6f6"/><stop offset="0.58" stop-color="#ebebeb"/><stop offset="0.66" stop-color="#dadada"/><stop offset="0.72" stop-color="#c5c4c4"/><stop offset="0.73" stop-color="#c3c2c2"/><stop offset="0.75" stop-color="#bcbbbb"/><stop offset="0.77" stop-color="#a8a7a7"/><stop offset="0.78" stop-color="#a3a2a2"/><stop offset="0.8" stop-color="#999797"/><stop offset="0.84" stop-color="#7d7b7b"/><stop offset="0.85" stop-color="#737171"/><stop offset="0.89" stop-color="#5e5d5d"/><stop offset="0.95" stop-color="#2a2929"/><stop offset="1"/></radialGradient></defs><title>i_reuseableBag</title><g id="Layer_2" data-name="Layer 2"><g id="L9_-_REUSEABLE_BAGS" data-name="L9 - REUSEABLE BAGS"><circle id="Background" class="cls-1" cx="240.36" cy="240.36" r="240.36"/><circle id="BG_Gradient" data-name="BG Gradient" class="cls-2" cx="240.36" cy="240.36" r="240.36"/><g id="_reuseBag" data-name="&lt;reuseBag"><path class="cls-3" d="M129.26,141.22H355.58l18.86,216.89S382.3,408.4,335.15,410s-177.6,0-177.6,0-56.58,4.72-51.87-51.86S129.26,141.22,129.26,141.22Z"/><path class="cls-3" d="M302.14,174.22s19.8-105.3-61.61-105.3-61,105.3-61,105.3"/><g id="recycleTriSmall"><g id="darkGreenShadow"><path class="cls-4" d="M328.83,329s9.06,13.89-.9,14.19c-7.65.23-85.89.11-121.82,0"/><polygon class="cls-5" points="208.88 363.81 208.88 322.51 188.23 343.16 208.88 363.81"/><path class="cls-4" d="M171.81,343.3h-15.4s-3.93.3,0-7.17c3-5.75,43.4-75.25,61.77-106.85"/><polygon class="cls-5" points="198.94 221.31 234.65 242.06 227.17 213.83 198.94 221.31"/><path class="cls-4" d="M234.92,199.12l4.53-7.24s4.52-4.33,7,0,4.25,7.24,4.25,7.24l60.73,100.93"/><polygon class="cls-5" points="327.66 287.02 292.27 308.32 320.61 315.37 327.66 287.02"/></g><g id="lightGreen"><path class="cls-6" d="M323.09,329s9.06,13.89-.9,14.19c-7.8.24-89,.1-123.93,0"/><polygon class="cls-7" points="200.71 361.38 200.71 324.94 182.49 343.16 200.71 361.38"/><path class="cls-6" d="M166.07,343.3h-15.4s-3.92.3,0-7.17c3.09-5.86,45-78,62.83-108.67"/><polygon class="cls-7" points="196.53 220.43 228.04 238.74 221.43 213.83 196.53 220.43"/><path class="cls-6" d="M229.18,199.12l4.53-7.24s4.52-4.33,7,0,4.25,7.24,4.25,7.24l61.82,102.73"/><polygon class="cls-7" points="321.09 290.36 289.86 309.15 314.87 315.37 321.09 290.36"/></g></g></g></g></g></svg>