<svg xmlns="http://www.w3.org/2000/svg" xmlns:xlink="http://www.w3.org/1999/xlink" viewBox="0 0 480.72 480.72"><defs><style>.cls-1{fill:#ff2291;}.cls-2{opacity:0.5;fill:url(#radial-gradient);}.cls-3{fill:#8cc63f;stroke:#39b54a;stroke-linecap:round;stroke-miterlimit:10;stroke-width:8px;}.cls-4{fill:#39b54a;}.cls-5{fill:#a67c52;}</style><radialGradient id="radial-gradient" cx="240.36" cy="240.36" r="240.36" gradientUnits="userSpaceOnUse"><stop offset="0" stop-color="#fff"/><stop offset="0.36" stop-color="#fdfdfd"/><stop offset="0.49" stop-color="#f6f6f6"/><stop offset="0.58" stop-color="#ebebeb"/><stop offset="0.66" stop-color="#dadada"/><stop offset="0.72" stop-color="#c5c4c4"/><stop offset="0.73" stop-color="#c3c2c2"/><stop offset="0.75" stop-color="#bcbbbb"/><stop offset="0.77" stop-color="#a8a7a7"/><stop offset="0.78" stop-color="#a3a2a2"/><stop offset="0.8" stop-color="#999797"/><stop offset="0.84" stop-color="#7d7b7b"/><stop offset="0.85" stop-color="#737171"/><stop offset="0.89" stop-color="#5e5d5d"/><stop offset="0.95" stop-color="#2a2929"/><stop offset="1"/></radialGradient></defs><title>i_seedling</title><g id="Layer_2" data-name="Layer 2"><g id="L7_-_SEEDLING" data-name="L7 - SEEDLING"><circle id="Background" class="cls-1" cx="240.36" cy="240.36" r="240.36"/><circle id="BG_Gradient" data-name="BG Gradient" class="cls-2" cx="240.36" cy="240.36" r="240.36"/><g id="Plant"><g id="leaves"><path id="Leaf_Left" data-name="Leaf Left" class="cls-3" d="M142.84,200c9.15-.22,19.91-5,23.79-12.12,5.35-9.83,5.67-15.73,3.37-28.23h0c-12-11.52-37.13-15.08-50.94-5.39C103.73,165,95.7,204.57,95.7,204.57Z"/><path id="Leaf_Right" data-name="Leaf Right" class="cls-3" d="M317.32,191.64c-12.82,1.2-28.65-3.67-35.25-13-9.13-12.85-11.06-22.79-9.92-40.65h0c14.79-18.09,49.86-25.49,70.78-14.25,23.2,12.46,41,66.38,41,66.38Z"/></g><g id="stem"><path class="cls-4" d="M223.21,392.19c-1.2-26.25-1.63-52.51-1.82-78.77-.14-13.13-.08-26.25,0-39.38,0-6.57.06-13.13.12-19.69l.24-19.7.15-9.84.09-4.93c0-1.43,0-2.86-.1-4.29a55.77,55.77,0,0,0-1.17-8.52A54.89,54.89,0,0,0,209.3,183.9a55.78,55.78,0,0,0-13.2-11.52,52.35,52.35,0,0,0-16.39-6.71,56.47,56.47,0,0,0-18.14-1.11,72.87,72.87,0,0,0-9.28,1.27c-1.55.26-3,.7-4.57,1.06-.75.21-1.49.46-2.23.68s-1.51.44-2.23.73a44.13,44.13,0,0,0-4.34,1.74c-.71.34-1.44.64-2.13,1l-2,1.14-1,.56c-.34.2-.65.43-1,.65l-2,1.31a18.54,18.54,0,0,0-1.85,1.46l-1.84,1.5-.15.12a1.53,1.53,0,0,1-2.12-2.2c1.12-1.28,2.19-2.65,3.43-3.84l1.89-1.76c.32-.29.62-.6,1-.87l1-.79,2.07-1.57c.7-.5,1.44-.94,2.17-1.41,1.44-1,3-1.76,4.49-2.58s3.12-1.48,4.7-2.18,3.21-1.28,4.86-1.77a78.34,78.34,0,0,1,10-2.62,66.28,66.28,0,0,1,21.08-.8A63,63,0,0,1,202,161.85a64.74,64.74,0,0,1,17.35,13.05,67.5,67.5,0,0,1,12.22,18.15,66.76,66.76,0,0,1,5.72,21.29c.2,1.84.26,3.69.33,5.54l.09,4.93.15,9.84.24,19.7c.06,6.56.12,13.12.12,19.69,0,13.13.09,26.25-.05,39.38-.19,26.26-.62,52.52-1.82,78.77a6.59,6.59,0,0,1-13.16,0Z"/><path class="cls-4" d="M355.65,166.84c-4.15-6.88-8.84-13.44-14.52-18.77a44.4,44.4,0,0,0-19.72-10.95c-7.31-1.86-15.17-2-23-1.62a65.17,65.17,0,0,0-21.91,4.9A51.64,51.64,0,0,0,258.85,153a66.53,66.53,0,0,0-11.75,18.63c-1.49,3.43-2.71,7-3.94,10.57s-2.34,7.24-3.26,11a80.42,80.42,0,0,0-2,11.34c-.21,1.92-.34,3.84-.36,5.75,0,.95,0,1.9,0,2.85l.1,1.39a9.12,9.12,0,0,0,.15,1.25,8.19,8.19,0,1,1-15.92,3.84,7.93,7.93,0,0,1-.19-2.69l.11-1.12c.07-.73.15-1.22.22-1.8l.22-1.65.44-3.24.9-6.39c.59-4.24,1.31-8.45,2.12-12.68a104.94,104.94,0,0,1,3.2-12.55A81.11,81.11,0,0,1,234,165.43,79.71,79.71,0,0,1,249.71,144a63.3,63.3,0,0,1,22.75-14,67.49,67.49,0,0,1,12.85-3.14,79.74,79.74,0,0,1,13-.73,112.57,112.57,0,0,1,12.67,1A69,69,0,0,1,323.56,130a55.12,55.12,0,0,1,6.05,2.52,49.68,49.68,0,0,1,5.66,3.29,55.84,55.84,0,0,1,5.12,4,57.05,57.05,0,0,1,4.52,4.55,86.8,86.8,0,0,1,13.34,21.07,1.47,1.47,0,0,1-2.59,1.39Z"/></g><path id="Dirt" class="cls-5" d="M174,393.92s22.42,7.35,55.43,7.35a221.7,221.7,0,0,0,61.06-9.08s-22-54.35-60.68-54.35S174,393.92,174,393.92Z"/></g></g></g></svg>