<svg xmlns="http://www.w3.org/2000/svg" xmlns:xlink="http://www.w3.org/1999/xlink" viewBox="0 0 480.72 480.72"><defs><style>.cls-1{fill:#ff2291;}.cls-2,.cls-7{opacity:0.5;}.cls-2{fill:url(#radial-gradient);}.cls-3,.cls-4{fill:none;stroke:#39b54a;stroke-miterlimit:10;}.cls-3{stroke-width:20px;}.cls-4{stroke-width:12px;}.cls-5{opacity:0.1;}.cls-6{fill:#757575;}.cls-7{fill:#e4e4e4;}.cls-8{fill:#282828;}</style><radialGradient id="radial-gradient" cx="240.36" cy="240.36" r="240.36" gradientUnits="userSpaceOnUse"><stop offset="0" stop-color="#fff"/><stop offset="0.36" stop-color="#fdfdfd"/><stop offset="0.49" stop-color="#f6f6f6"/><stop offset="0.58" stop-color="#ebebeb"/><stop offset="0.66" stop-color="#dadada"/><stop offset="0.72" stop-color="#c5c4c4"/><stop offset="0.73" stop-color="#c3c2c2"/><stop offset="0.75" stop-color="#bcbbbb"/><stop offset="0.77" stop-color="#a8a7a7"/><stop offset="0.78" stop-color="#a3a2a2"/><stop offset="0.8" stop-color="#999797"/><stop offset="0.84" stop-color="#7d7b7b"/><stop offset="0.85" stop-color="#737171"/><stop offset="0.89" stop-color="#5e5d5d"/><stop offset="0.95" stop-color="#2a2929"/><stop offset="1"/></radialGradient></defs><title>i_straw</title><g id="Layer_2" data-name="Layer 2"><g id="L1_-_STRAW" data-name="L1 - STRAW"><circle id="Background" class="cls-1" cx="240.36" cy="240.36" r="240.36"/><circle id="BG_Gradient" data-name="BG Gradient" class="cls-2" cx="240.36" cy="240.36" r="240.36"/><g id="eStraw"><g id="outercircle"><path class="cls-3" d="M370.3,384.7a191.66,191.66,0,0,0,61.18-140.62c0-106.15-86.05-192.2-192.2-192.2"/><path class="cls-3" d="M239.28,436.28c-106.15,0-192.2-86-192.2-192.2a191.47,191.47,0,0,1,46.54-125.4"/><polyline class="cls-4" points="100.71 146.48 99.63 113.45 64.74 117.61"/><polyline class="cls-4" points="368.93 354.4 366.24 387.34 401.37 387.19"/></g><g id="strawinner"><path id="Shadow" class="cls-5" d="M136.81,359.32l82.78-91.07c9.08-10,17.89-16.79,26-18.95,7.79-2.08,13.86-2.16,27.18-.9,15.06,1.42,39.31,4,43.38,4.86a2.61,2.61,0,0,1,1.59,3l-.63,2.18a2.2,2.2,0,0,1-2.11,1.59c-4.08,0-36.82-3.71-41-4-30.06-1.8-34.37,6.35-43.92,16.51-15.29,16.28-73.4,90.4-73.4,90.4Z"/><path id="Straw" class="cls-6" d="M129.81,361.78l66.81-177.46s11.88-47.88,75.6-43.56c51.92,3.52,68.7,5.6,73.14,6.25a1.42,1.42,0,0,1,1.19,1.6L344.22,166s-66.24-6.48-71.28-6.48-41.47-4-54.79,32.37c-11.32,30.91-54.59,144.57-67.31,178a9.8,9.8,0,0,1-12.77,5.62l-2.7-1.07A9.81,9.81,0,0,1,129.81,361.78Z"/><path id="Highlight" class="cls-7" d="M140.88,363.5,210.3,181s7.38-17.78,21.6-24.37c13.68-6.35,19.2-6.35,35.52-6.83s64.8,3.84,64.8,3.84,5.57.39,8.58-.66c2.52-.87,4.2-4.29,4.75-5.55a.38.38,0,0,0-.31-.54l-13.86-1.49-19.8-1.76-26-2s-17.13-1.33-21.5-1.21-17.86-.08-30.8,5.34S214.67,156.56,210,161.28a61.09,61.09,0,0,0-9.27,13.09A68.14,68.14,0,0,0,196,185.76c-1.68,4.62-8.9,23.59-17.55,46.86-3.87,10.38-8.29,22-12.61,33.48l-35.52,94.37a11.43,11.43,0,0,0-.88,7,9.94,9.94,0,0,0,7,7.3Z"/><path id="Open_end" data-name="Open end" class="cls-8" d="M349.38,156.17c0,5.4-2.87,9.79-5.4,9.79s-3.78-4.39-3.78-9.79,2.06-9.2,4.59-9.2S349.38,150.76,349.38,156.17Z"/></g></g></g></g></svg>