<svg xmlns="http://www.w3.org/2000/svg" xmlns:xlink="http://www.w3.org/1999/xlink" viewBox="0 0 480.72 480.72"><defs><style>.cls-1{fill:#ff2291;}.cls-2{opacity:0.5;fill:url(#radial-gradient);}.cls-3{fill:#666;}.cls-4{fill:gray;}.cls-5{fill:#999;}.cls-6{fill:#b3b3b3;}.cls-7{fill:none;stroke:#39b54a;stroke-miterlimit:10;stroke-width:10px;}</style><radialGradient id="radial-gradient" cx="240.36" cy="240.36" r="240.36" gradientUnits="userSpaceOnUse"><stop offset="0" stop-color="#fff"/><stop offset="0.36" stop-color="#fdfdfd"/><stop offset="0.49" stop-color="#f6f6f6"/><stop offset="0.58" stop-color="#ebebeb"/><stop offset="0.66" stop-color="#dadada"/><stop offset="0.72" stop-color="#c5c4c4"/><stop offset="0.73" stop-color="#c3c2c2"/><stop offset="0.75" stop-color="#bcbbbb"/><stop offset="0.77" stop-color="#a8a7a7"/><stop offset="0.78" stop-color="#a3a2a2"/><stop offset="0.8" stop-color="#999797"/><stop offset="0.84" stop-color="#7d7b7b"/><stop offset="0.85" stop-color="#737171"/><stop offset="0.89" stop-color="#5e5d5d"/><stop offset="0.95" stop-color="#2a2929"/><stop offset="1"/></radialGradient></defs><title>i_windmill</title><g id="Layer_2" data-name="Layer 2"><g id="L6_-_WIND_TURBINE" data-name="L6 - WIND TURBINE"><circle id="Background" class="cls-1" cx="240.36" cy="240.36" r="240.36"/><circle id="BG_Gradient" data-name="BG Gradient" class="cls-2" cx="240.36" cy="240.36" r="240.36"/><g id="windgraphic"><polyline class="cls-3" points="167.66 418.64 222.09 207.45 263.04 207.45 308.83 418.64"/><circle class="cls-4" cx="242.57" cy="189.63" r="28.94"/><ellipse class="cls-5" cx="303.15" cy="129.12" rx="85.83" ry="10.18" transform="translate(-2.51 252.18) rotate(-45)"/><ellipse class="cls-5" cx="301.82" cy="249.16" rx="10.18" ry="85.83" transform="translate(-87.78 286.39) rotate(-45)"/><ellipse class="cls-5" cx="181.78" cy="129.12" rx="10.18" ry="85.83" transform="translate(-38.06 166.35) rotate(-45)"/><ellipse class="cls-5" cx="181.31" cy="250.97" rx="85.83" ry="10.18" transform="translate(-124.36 201.71) rotate(-45)"/><circle class="cls-6" cx="242.57" cy="189.63" r="13.92"/></g><g id="circlespinning"><path class="cls-7" d="M297.48,85.76A122.31,122.31,0,0,0,124.84,234.1"/><path class="cls-7" d="M355.88,153.72a122.31,122.31,0,0,1-160.43,154"/><polyline class="cls-7" points="283.81 91.81 299.3 86.43 292.77 72.21"/><polyline class="cls-7" points="209.72 301.56 194.42 307.45 201.41 321.45"/></g></g></g></svg>